<?xml version="1.0" encoding="utf-8"?>
<!-- Generator: Adobe Illustrator 16.0.0, SVG Export Plug-In . SVG Version: 6.00 Build 0)  -->
<!DOCTYPE svg PUBLIC "-//W3C//DTD SVG 1.1//EN" "http://www.w3.org/Graphics/SVG/1.1/DTD/svg11.dtd">
<svg version="1.1" id="Layer_1" xmlns="http://www.w3.org/2000/svg" xmlns:xlink="http://www.w3.org/1999/xlink" x="0px" y="0px"
	 width="480px" height="800px" viewBox="0 0 480 800" enable-background="new 0 0 480 800" xml:space="preserve">
<linearGradient id="SVGID_1_" gradientUnits="userSpaceOnUse" x1="-58.0728" y1="93.3687" x2="273.8066" y2="93.3687">
	<stop  offset="0.2143" style="stop-color:#FFBA3C"/>
	<stop  offset="1" style="stop-color:#ED6AFF"/>
</linearGradient>
<path fill="url(#SVGID_1_)" d="M269.838-22.862c6.811,9.492,4.639,22.708-4.854,29.52L-24.584,214.453
	c-9.492,6.812-22.708,4.639-29.52-4.854l0,0c-6.812-9.492-4.639-22.708,4.854-29.52L240.318-27.716
	C249.811-34.527,263.025-32.354,269.838-22.862L269.838-22.862z"/>
<linearGradient id="SVGID_2_" gradientUnits="userSpaceOnUse" x1="71.7271" y1="51.5186" x2="403.6064" y2="51.5186">
	<stop  offset="0.0051" style="stop-color:#57C5FB"/>
	<stop  offset="1" style="stop-color:#ED6AFF"/>
</linearGradient>
<path fill="url(#SVGID_2_)" d="M399.638-64.712c6.812,9.492,4.639,22.708-4.854,29.52L105.216,172.603
	c-9.492,6.812-22.708,4.639-29.52-4.854l0,0c-6.812-9.492-4.639-22.708,4.854-29.52L370.118-69.566
	C379.609-76.377,392.826-74.204,399.638-64.712L399.638-64.712z"/>
<linearGradient id="SVGID_3_" gradientUnits="userSpaceOnUse" x1="-5.4497" y1="159.2192" x2="326.4297" y2="159.2192">
	<stop  offset="0.0051" style="stop-color:#57C5FB"/>
	<stop  offset="1" style="stop-color:#36FF5C"/>
</linearGradient>
<path fill="url(#SVGID_3_)" d="M322.461,42.989c6.811,9.491,4.638,22.708-4.854,29.52L28.039,280.303
	c-9.492,6.812-22.708,4.639-29.52-4.853l0,0c-6.812-9.492-4.639-22.709,4.853-29.521L292.94,38.135
	C302.432,31.324,315.648,33.496,322.461,42.989L322.461,42.989z"/>
<linearGradient id="SVGID_4_" gradientUnits="userSpaceOnUse" x1="218.1865" y1="642.2109" x2="550.0664" y2="642.2109">
	<stop  offset="0.2143" style="stop-color:#FFBA3C"/>
	<stop  offset="1" style="stop-color:#ED6AFF"/>
</linearGradient>
<path fill="url(#SVGID_4_)" d="M546.098,525.98c6.811,9.492,4.639,22.708-4.854,29.52L251.676,763.295
	c-9.492,6.813-22.709,4.639-29.521-4.854l0,0c-6.812-9.492-4.639-22.707,4.854-29.52l289.568-207.795
	C526.07,514.315,539.285,516.488,546.098,525.98L546.098,525.98z"/>
<linearGradient id="SVGID_5_" gradientUnits="userSpaceOnUse" x1="173.1206" y1="727.3613" x2="505" y2="727.3613">
	<stop  offset="0" style="stop-color:#ED6AFF"/>
	<stop  offset="1" style="stop-color:#57C5FB"/>
</linearGradient>
<path fill="url(#SVGID_5_)" d="M501.03,611.13c6.813,9.492,4.639,22.708-4.854,29.52L206.608,848.445
	c-9.491,6.812-22.708,4.639-29.519-4.854l0,0c-6.812-9.492-4.639-22.708,4.854-29.52l289.568-207.796
	C481.003,599.465,494.22,601.639,501.03,611.13L501.03,611.13z"/>
<linearGradient id="SVGID_6_" gradientUnits="userSpaceOnUse" x1="92.3096" y1="681.5605" x2="424.1885" y2="681.5605">
	<stop  offset="0.0051" style="stop-color:#57C5FB"/>
	<stop  offset="1" style="stop-color:#36FF5C"/>
</linearGradient>
<path fill="url(#SVGID_6_)" d="M420.221,565.331c6.811,9.491,4.637,22.708-4.855,29.52L125.798,802.646
	c-9.492,6.812-22.708,4.639-29.52-4.853l0,0c-6.812-9.492-4.639-22.709,4.853-29.521l289.567-207.795
	C400.191,553.666,413.408,555.838,420.221,565.331L420.221,565.331z"/>
</svg>
